<svg viewBox="0 0 1000 1000" xmlns="http://www.w3.org/2000/svg">
<rect width="100%" height="100%" fill="white" />
<polygon points="447.6201074198669,618.089888770824 351.62997385684855,686.5535845174064 345.87870172647143,698.365665872377 376.4142210629059,707.7455527398608 452.2715729585707,668.2952067483866 467.5539677104958,631.2008877961882 452.2018156560395,618.1589178107974" fill="none" stroke="black" stroke-width="1.0" />
<polygon points="234.29516814584014,251.05670121036565 50.0,351.470408671021 50.0,377.4641872944296 202.5683500065728,349.94108843803997 240.93750802736383,323.41220650418586 252.3038674412478,296.1674258165235" fill="none" stroke="black" stroke-width="1.0" />
<polygon points="234.29516814584014,251.05670121036565 252.3038674412478,296.1674258165235 265.4080253972405,292.8839395963482 274.83668729738395,281.2752546884765 280.7096036234655,256.940622373068 267.7529282338114,239.75281166345826 247.19674146302032,234.36988953428636" fill="none" stroke="black" stroke-width="1.0" />
<polygon points="371.44269834697775,180.999697697006 368.4912100816769,201.21171119645624 380.5553970328728,287.6915899269195 437.78610832960305,271.14645134043576 416.5053496119869,79.31173272761725" fill="none" stroke="black" stroke-width="1.0" />
<polygon points="552.5447914231096,496.2829151999102 514.4214296794562,534.4937718090227 529.9794640671206,557.8388267943466 567.5258851458523,563.8397996866231 595.3000859470524,547.2546336692003 563.4681468311242,494.5609481072307" fill="none" stroke="black" stroke-width="1.0" />
<polygon points="297.50410153230774,812.5693081461612 324.41444121634976,770.676127368877 337.82073657416436,701.7157317273295 318.5638545195058,691.8023770286259 265.9775143729074,702.8977945689056 263.1572019271119,707.1371701693271" fill="none" stroke="black" stroke-width="1.0" />
<polygon points="259.65226866867823,624.9334882869982 256.3987325236756,627.0735574310777 238.01304775550003,675.8254867565547 265.9775143729074,702.8977945689056 318.5638545195058,691.8023770286259 289.2380611946606,635.3422348720471" fill="none" stroke="black" stroke-width="1.0" />
<polygon points="583.5265918741737,634.8022072553451 619.6236064340167,555.2320379845598 611.6421567458683,549.4682694309575 595.3000859470524,547.2546336692003 567.5258851458523,563.8397996866231 559.7676920003018,617.6417448287781 577.2258512690621,633.4660407827022" fill="none" stroke="black" stroke-width="1.0" />
<polygon points="762.3525409200311,269.62409428191927 868.7317831500425,388.8256406348837 950.0,403.8090381892098 949.9999999999998,286.00355616809975" fill="none" stroke="black" stroke-width="1.0" />
<polygon points="614.0744560617873,757.8015616812463 700.9495032262059,868.2863123904692 701.6260535350158,728.4851236410465 690.5767979428244,710.0685985468617 685.3006907049064,708.47004368323" fill="none" stroke="black" stroke-width="1.0" />
<polygon points="558.5744479773316,50.0 542.9209052637395,50.0 491.8068719731325,259.90048712996645 496.0560395692076,291.75191307586965 579.7097984484157,257.91426959481646 585.2932702515639,171.9020555390664" fill="none" stroke="black" stroke-width="1.0" />
<polygon points="750.4026155342667,215.5679481304253 749.5443286237805,259.80956212001615 750.6790733708488,264.12981212514364 762.3525409200311,269.62409428191927 949.9999999999998,286.00355616809975 950.0,50.0 781.6048737517237,50.00000000000023" fill="none" stroke="black" stroke-width="1.0" />
<polygon points="506.70349325171526,756.755335051459 495.5457254980821,866.181979786439 572.9029568223473,742.6153295945394 541.3387640553885,731.4048718511533" fill="none" stroke="black" stroke-width="1.0" />
<polygon points="632.1994753307606,560.7180415642061 680.4431644254514,537.7553305530319 640.0523372385617,459.4845052694568 611.6421567458683,549.4682694309575 619.6236064340167,555.2320379845598" fill="none" stroke="black" stroke-width="1.0" />
<polygon points="280.31189364641097,409.15301444560487 317.35765663831745,362.5541677070453 233.72558720395585,359.97671351105123" fill="none" stroke="black" stroke-width="1.0" />
<polygon points="577.0100366883753,340.3832087465231 539.4307537947249,337.85676094248083 480.9269066942453,394.01864118317303 483.9775331001449,395.999539281574 526.1859648766269,399.1476131375664 579.9892062379363,355.3504442718412" fill="none" stroke="black" stroke-width="1.0" />
<polygon points="310.8886728497167,325.6656762360418 325.8473026263884,328.9793714792818 325.2484826401703,327.2148420819726 274.83668729738395,281.2752546884765 265.4080253972405,292.8839395963482" fill="none" stroke="black" stroke-width="1.0" />
<polygon points="247.19674146302032,234.36988953428636 267.7529282338114,239.75281166345826 371.44269834697775,180.999697697006 416.5053496119869,79.31173272761725 425.47352953354175,50.0 185.87401737343794,50.00000000000023" fill="none" stroke="black" stroke-width="1.0" />
<polygon points="50.0,420.14760748374454 50.0,536.1725254224391 186.3000513445906,551.748948376897 280.4340814879526,469.7047244336046 264.2361288369158,456.10826565583466" fill="none" stroke="black" stroke-width="1.0" />
<polygon points="371.3858560083793,634.9637969462101 352.68482004513066,676.9059289634158 351.62997385684855,686.5535845174064 447.6201074198669,618.089888770824 398.80187567327357,603.1431595266869" fill="none" stroke="black" stroke-width="1.0" />
<polygon points="476.08530600484596,394.1289506279063 480.9269066942453,394.01864118317303 539.4307537947249,337.85676094248083 498.5276152337629,313.6142491486497 458.46828631255397,337.2913038932776" fill="none" stroke="black" stroke-width="1.0" />
<polygon points="501.6459506656204,469.27467168500675 521.0009186727233,440.7351363091019 483.9775331001449,395.999539281574 480.9269066942453,394.01864118317303 476.08530600484596,394.1289506279063 432.2782196516559,426.7455322899981 467.82077997848205,483.3817800443304" fill="none" stroke="black" stroke-width="1.0" />
<polygon points="524.1328649165573,687.701259899598 471.4805296333838,631.5882600154702 467.5539677104958,631.2008877961882 452.2715729585707,668.2952067483866 453.25650419158586,709.4469112132845 462.74869144089035,724.9312405205408" fill="none" stroke="black" stroke-width="1.0" />
<polygon points="583.5265918741737,634.8022072553451 577.2258512690621,633.4660407827022 540.5067824294165,681.8805197717176 620.6146232273079,678.7862298260901 627.3031126449491,669.7252432773482 626.5507653024258,658.829347923017" fill="none" stroke="black" stroke-width="1.0" />
<polygon points="696.0832590949503,493.39993739352786 640.2022149089564,446.4640039873357 640.0523372385617,459.4845052694568 680.4431644254514,537.7553305530319 698.0365422664931,536.9750637179773" fill="none" stroke="black" stroke-width="1.0" />
<polygon points="465.9153362973442,494.7169430759202 467.82077997848205,483.3817800443304 432.2782196516559,426.7455322899981 385.50882510341864,415.2786261599422 343.0299994014981,478.64588169364083 408.40488666571423,523.3057621881967 413.4696742414375,523.7094745137606" fill="none" stroke="black" stroke-width="1.0" />
<polygon points="376.4142210629059,707.7455527398608 401.73276099809675,729.7346808991502 453.25650419158586,709.4469112132845 452.2715729585707,668.2952067483866" fill="none" stroke="black" stroke-width="1.0" />
<polygon points="583.5265918741737,634.8022072553451 626.5507653024258,658.829347923017 653.9773075403924,623.577215889282 655.8378565676387,619.8799592618224 632.1994753307606,560.7180415642061 619.6236064340167,555.2320379845598" fill="none" stroke="black" stroke-width="1.0" />
<polygon points="513.0284088068938,534.0022930145432 479.3082400071601,516.4258555099366 451.5795652280739,607.4712053736926 452.19947646851347,616.3958578137228" fill="none" stroke="black" stroke-width="1.0" />
<polygon points="670.0511314577436,355.3111987521602 694.1042035226294,322.08167009654517 679.6396892382063,308.4279569163773 656.9208510750939,302.3962315425656 590.4499354004909,328.08687499049256" fill="none" stroke="black" stroke-width="1.0" />
<polygon points="371.38649251631057,583.500425919811 408.40488666571423,523.3057621881967 343.0299994014981,478.64588169364083 323.8905343250212,487.8218441149088 345.3766206385234,562.6466624507618 365.5378006864063,582.8533765455236" fill="none" stroke="black" stroke-width="1.0" />
<polygon points="50.0,613.6345072039381 119.50759281682174,629.1374340398181 256.3987325236756,627.0735574310777 259.65226866867823,624.9334882869982 259.5450313085875,624.0419969118404 208.20924618060727,554.6759064209645 186.3000513445906,551.748948376897 50.0,536.1725254224391" fill="none" stroke="black" stroke-width="1.0" />
<polygon points="655.8378565676387,619.8799592618224 653.9773075403924,623.577215889282 710.1059362865361,677.9414604623685 717.6912225498415,671.1974830050772 721.6722164802015,640.6723303247667 713.571532891408,608.8987235046627" fill="none" stroke="black" stroke-width="1.0" />
<polygon points="289.2380611946606,635.3422348720471 310.8956088237042,614.4356447560767 306.9158180392059,580.610039656201 294.0250832529145,572.9880351414596 274.0201852530425,577.1488929765994 259.5450313085875,624.0419969118404 259.65226866867823,624.9334882869982" fill="none" stroke="black" stroke-width="1.0" />
<polygon points="220.62597017359712,679.0343310834422 238.01304775550003,675.8254867565547 256.3987325236756,627.0735574310777 119.50759281682174,629.1374340398181" fill="none" stroke="black" stroke-width="1.0" />
<polygon points="201.9717762734829,767.0585259713195 84.97597303432956,949.9999999999999 224.3802222351788,949.9999999999999 297.50410153230774,812.5693081461612 263.1572019271119,707.1371701693271" fill="none" stroke="black" stroke-width="1.0" />
<polygon points="294.0250832529145,572.9880351414596 308.0522064834161,503.92002353607376 264.4405556435489,565.453819176214 274.0201852530425,577.1488929765994" fill="none" stroke="black" stroke-width="1.0" />
<polygon points="352.68482004513066,676.9059289634158 371.3858560083793,634.9637969462101 341.9162298779503,610.1733012529305 340.95655819777994,610.9960397105141" fill="none" stroke="black" stroke-width="1.0" />
<polygon points="710.1059362865361,677.9414604623685 690.5767979428244,710.0685985468617 701.6260535350158,728.4851236410465 841.6097882388169,699.9016618247285 717.6912225498415,671.1974830050772" fill="none" stroke="black" stroke-width="1.0" />
<polygon points="264.4405556435489,565.453819176214 231.53759816018191,549.1901634578562 208.20924618060727,554.6759064209645 259.5450313085875,624.0419969118404 274.0201852530425,577.1488929765994" fill="none" stroke="black" stroke-width="1.0" />
<polygon points="536.8558563824902,435.76256160585945 526.1859648766269,399.1476131375664 483.9775331001449,395.999539281574 521.0009186727233,440.7351363091019" fill="none" stroke="black" stroke-width="1.0" />
<polygon points="413.4696742414375,523.7094745137606 451.5795652280739,607.4712053736926 479.3082400071601,516.4258555099366 465.9153362973442,494.7169430759202" fill="none" stroke="black" stroke-width="1.0" />
<polygon points="750.4026155342667,215.5679481304253 688.499878508549,248.9359133395974 679.9337516746948,256.21915390924187 689.7073690001793,271.23750561763063 749.5443286237805,259.80956212001615" fill="none" stroke="black" stroke-width="1.0" />
<polygon points="238.01304775550003,675.8254867565547 220.62597017359712,679.0343310834422 201.9717762734829,767.0585259713195 263.1572019271119,707.1371701693271 265.9775143729074,702.8977945689056" fill="none" stroke="black" stroke-width="1.0" />
<polygon points="459.0902095523297,949.9999999999999 430.6079815323784,823.5945836996596 385.37055839919617,776.2552416316001 324.41444121634976,770.676127368877 297.50410153230774,812.5693081461612 224.3802222351788,949.9999999999999" fill="none" stroke="black" stroke-width="1.0" />
<polygon points="365.5378006864063,582.8533765455236 341.9162298779503,610.1733012529305 371.3858560083793,634.9637969462101 398.80187567327357,603.1431595266869 371.38649251631057,583.500425919811" fill="none" stroke="black" stroke-width="1.0" />
<polygon points="727.8703757044846,549.4949993431254 730.8294607096054,588.4646074517553 949.9999999999998,684.4582856311922 949.9999999999998,494.2931361060264 769.1192835379456,514.1541940664056" fill="none" stroke="black" stroke-width="1.0" />
<polygon points="841.6097882388169,699.9016618247285 701.6260535350158,728.4851236410465 700.9495032262059,868.2863123904692 728.3340834906596,949.9999999999999 950.0,950.0 949.9999999999998,699.3022529734776" fill="none" stroke="black" stroke-width="1.0" />
<polygon points="416.5053496119869,79.31173272761725 437.78610832960305,271.14645134043576 441.0081324272096,274.36130406313896 491.8068719731325,259.90048712996645 542.9209052637395,50.0 425.47352953354175,50.0" fill="none" stroke="black" stroke-width="1.0" />
<polygon points="627.3031126449491,669.7252432773482 620.6146232273079,678.7862298260901 591.3067672677553,741.8753005118173 614.0744560617873,757.8015616812463 685.3006907049064,708.47004368323" fill="none" stroke="black" stroke-width="1.0" />
<polygon points="563.4681468311242,494.5609481072307 592.3214908960849,435.18252880059185 536.8558563824902,435.76256160585945 521.0009186727233,440.7351363091019 501.6459506656204,469.27467168500675 552.5447914231096,496.2829151999102" fill="none" stroke="black" stroke-width="1.0" />
<polygon points="471.4805296333838,631.5882600154702 487.7163487507178,622.8912553883548 529.9794640671206,557.8388267943466 514.4214296794562,534.4937718090227 513.0284088068938,534.0022930145432 452.19947646851347,616.3958578137228 452.2018156560395,618.1589178107974 467.5539677104958,631.2008877961882" fill="none" stroke="black" stroke-width="1.0" />
<polygon points="294.76551500357033,481.2841575281643 231.53759816018191,549.1901634578562 264.4405556435489,565.453819176214 308.0522064834161,503.92002353607376 314.094950448662,487.78115402762637" fill="none" stroke="black" stroke-width="1.0" />
<polygon points="312.3757761422799,273.47075820035616 280.7096036234655,256.940622373068 274.83668729738395,281.2752546884765 325.2484826401703,327.2148420819726" fill="none" stroke="black" stroke-width="1.0" />
<polygon points="506.70349325171526,756.755335051459 541.3387640553885,731.4048718511533 528.3156951452233,690.80945734993 524.1328649165573,687.701259899598 462.74869144089035,724.9312405205408 467.69787484749884,741.7100223338527" fill="none" stroke="black" stroke-width="1.0" />
<polygon points="584.4436601432766,328.93420186418143 577.0100366883753,340.3832087465231 579.9892062379363,355.3504442718412 607.4336389684656,424.499596118437 637.2668778517631,434.20406258901994 669.4084256039856,419.3181491236164 670.0511314577436,355.3111987521602 590.4499354004909,328.08687499049256" fill="none" stroke="black" stroke-width="1.0" />
<polygon points="487.7163487507178,622.8912553883548 471.4805296333838,631.5882600154702 524.1328649165573,687.701259899598 528.3156951452233,690.80945734993 540.5067824294165,681.8805197717176 577.2258512690621,633.4660407827022 559.7676920003018,617.6417448287781" fill="none" stroke="black" stroke-width="1.0" />
<polygon points="438.34574068894136,765.2136600515169 405.0590242387407,738.4310056069144 385.37055839919617,776.2552416316001 430.6079815323784,823.5945836996596" fill="none" stroke="black" stroke-width="1.0" />
<polygon points="750.6790733708488,264.12981212514364 730.0123377452335,326.557718020288 767.7473022572854,381.6256635248169 868.7317831500425,388.8256406348837 762.3525409200311,269.62409428191927" fill="none" stroke="black" stroke-width="1.0" />
<polygon points="647.3967001740045,244.99994902054368 656.9208510750939,302.3962315425656 679.6396892382063,308.4279569163773 689.7073690001793,271.23750561763063 679.9337516746948,256.21915390924187" fill="none" stroke="black" stroke-width="1.0" />
<polygon points="487.7163487507178,622.8912553883548 559.7676920003018,617.6417448287781 567.5258851458523,563.8397996866231 529.9794640671206,557.8388267943466" fill="none" stroke="black" stroke-width="1.0" />
<polygon points="314.094950448662,487.78115402762637 308.0522064834161,503.92002353607376 294.0250832529145,572.9880351414596 306.9158180392059,580.610039656201 345.3766206385234,562.6466624507618 323.8905343250212,487.8218441149088" fill="none" stroke="black" stroke-width="1.0" />
<polygon points="398.80187567327357,603.1431595266869 447.6201074198669,618.089888770824 452.2018156560395,618.1589178107974 452.19947646851347,616.3958578137228 451.5795652280739,607.4712053736926 413.4696742414375,523.7094745137606 408.40488666571423,523.3057621881967 371.38649251631057,583.500425919811" fill="none" stroke="black" stroke-width="1.0" />
<polygon points="627.3031126449491,669.7252432773482 685.3006907049064,708.47004368323 690.5767979428244,710.0685985468617 710.1059362865361,677.9414604623685 653.9773075403924,623.577215889282 626.5507653024258,658.829347923017" fill="none" stroke="black" stroke-width="1.0" />
<polygon points="591.3067672677553,741.8753005118173 620.6146232273079,678.7862298260901 540.5067824294165,681.8805197717176 528.3156951452233,690.80945734993 541.3387640553885,731.4048718511533 572.9029568223473,742.6153295945394 578.5364054521931,743.9200864397728" fill="none" stroke="black" stroke-width="1.0" />
<polygon points="343.44272898563923,346.9853404458979 361.99742675102925,350.68861574289406 366.80453075707857,345.6177319120284 380.5553970328728,287.6915899269195 368.4912100816769,201.21171119645624 312.3757761422799,273.47075820035616 325.2484826401703,327.2148420819726 325.8473026263884,328.9793714792818" fill="none" stroke="black" stroke-width="1.0" />
<polygon points="467.82077997848205,483.3817800443304 465.9153362973442,494.7169430759202 479.3082400071601,516.4258555099366 513.0284088068938,534.0022930145432 514.4214296794562,534.4937718090227 552.5447914231096,496.2829151999102 501.6459506656204,469.27467168500675" fill="none" stroke="black" stroke-width="1.0" />
<polygon points="730.8294607096054,588.4646074517553 713.571532891408,608.8987235046627 721.6722164802015,640.6723303247667 950.0,689.2973464842455 949.9999999999998,684.4582856311922" fill="none" stroke="black" stroke-width="1.0" />
<polygon points="526.1859648766269,399.1476131375664 536.8558563824902,435.76256160585945 592.3214908960849,435.18252880059185 607.4336389684656,424.499596118437 579.9892062379363,355.3504442718412" fill="none" stroke="black" stroke-width="1.0" />
<polygon points="50.0,50.0 50.0,351.470408671021 234.29516814584014,251.05670121036565 247.19674146302032,234.36988953428636 185.87401737343794,50.00000000000023" fill="none" stroke="black" stroke-width="1.0" />
<polygon points="544.3595350912219,949.9999999999999 728.3340834906596,949.9999999999999 700.9495032262059,868.2863123904692 614.0744560617873,757.8015616812463 591.3067672677553,741.8753005118173 578.5364054521931,743.9200864397728" fill="none" stroke="black" stroke-width="1.0" />
<polygon points="717.6912225498415,671.1974830050772 841.6097882388169,699.9016618247285 949.9999999999998,699.3022529734776 950.0,689.2973464842455 721.6722164802015,640.6723303247667" fill="none" stroke="black" stroke-width="1.0" />
<polygon points="431.55521613101416,330.0012048013591 444.46598663641754,287.10155234706326 441.0081324272096,274.36130406313896 437.78610832960305,271.14645134043576 380.5553970328728,287.6915899269195 366.80453075707857,345.6177319120284" fill="none" stroke="black" stroke-width="1.0" />
<polygon points="495.5457254980821,866.181979786439 506.70349325171526,756.755335051459 467.69787484749884,741.7100223338527 438.34574068894136,765.2136600515169 430.6079815323784,823.5945836996596 459.0902095523297,949.9999999999999 481.61000800379753,949.9999999999999" fill="none" stroke="black" stroke-width="1.0" />
<polygon points="585.2932702515639,171.9020555390664 647.3967001740045,244.99994902054368 679.9337516746948,256.21915390924187 688.499878508549,248.9359133395974 654.2952215993005,50.0 558.5744479773316,50.0" fill="none" stroke="black" stroke-width="1.0" />
<polygon points="868.7317831500425,388.8256406348837 767.7473022572854,381.6256635248169 720.0005532699997,417.9644400254763 731.4975256326716,464.832185199846 769.1192835379456,514.1541940664056 949.9999999999998,494.2931361060264 950.0,403.8090381892098" fill="none" stroke="black" stroke-width="1.0" />
<polygon points="572.9029568223473,742.6153295945394 495.5457254980821,866.181979786439 481.61000800379753,949.9999999999999 544.3595350912219,949.9999999999999 578.5364054521931,743.9200864397728" fill="none" stroke="black" stroke-width="1.0" />
<polygon points="595.3000859470524,547.2546336692003 611.6421567458683,549.4682694309575 640.0523372385617,459.4845052694568 640.2022149089564,446.4640039873357 637.2668778517631,434.20406258901994 607.4336389684656,424.499596118437 592.3214908960849,435.18252880059185 563.4681468311242,494.5609481072307" fill="none" stroke="black" stroke-width="1.0" />
<polygon points="310.8956088237042,614.4356447560767 340.95655819777994,610.9960397105141 341.9162298779503,610.1733012529305 365.5378006864063,582.8533765455236 345.3766206385234,562.6466624507618 306.9158180392059,580.610039656201" fill="none" stroke="black" stroke-width="1.0" />
<polygon points="698.0365422664931,536.9750637179773 727.8703757044846,549.4949993431254 769.1192835379456,514.1541940664056 731.4975256326716,464.832185199846 696.0832590949503,493.39993739352786" fill="none" stroke="black" stroke-width="1.0" />
<polygon points="498.5276152337629,313.6142491486497 495.29335177839044,299.3471370602506 444.46598663641754,287.10155234706326 431.55521613101416,330.0012048013591 458.46828631255397,337.2913038932776" fill="none" stroke="black" stroke-width="1.0" />
<polygon points="655.8378565676387,619.8799592618224 713.571532891408,608.8987235046627 730.8294607096054,588.4646074517553 727.8703757044846,549.4949993431254 698.0365422664931,536.9750637179773 680.4431644254514,537.7553305530319 632.1994753307606,560.7180415642061" fill="none" stroke="black" stroke-width="1.0" />
<polygon points="50.0,949.9999999999999 84.97597303432956,949.9999999999999 201.9717762734829,767.0585259713195 220.62597017359712,679.0343310834422 119.50759281682174,629.1374340398181 50.0,613.6345072039381" fill="none" stroke="black" stroke-width="1.0" />
<polygon points="233.72558720395585,359.97671351105123 202.5683500065728,349.94108843803997 50.0,377.4641872944296 50.0,420.14760748374454 264.2361288369158,456.10826565583466 280.31189364641097,409.15301444560487" fill="none" stroke="black" stroke-width="1.0" />
<polygon points="444.46598663641754,287.10155234706326 495.29335177839044,299.3471370602506 496.0560395692076,291.75191307586965 491.8068719731325,259.90048712996645 441.0081324272096,274.36130406313896" fill="none" stroke="black" stroke-width="1.0" />
<polygon points="385.37055839919617,776.2552416316001 405.0590242387407,738.4310056069144 401.73276099809675,729.7346808991502 376.4142210629059,707.7455527398608 345.87870172647143,698.365665872377 337.82073657416436,701.7157317273295 324.41444121634976,770.676127368877" fill="none" stroke="black" stroke-width="1.0" />
<polygon points="431.55521613101416,330.0012048013591 366.80453075707857,345.6177319120284 361.99742675102925,350.68861574289406 385.50882510341864,415.2786261599422 432.2782196516559,426.7455322899981 476.08530600484596,394.1289506279063 458.46828631255397,337.2913038932776" fill="none" stroke="black" stroke-width="1.0" />
<polygon points="318.5638545195058,691.8023770286259 337.82073657416436,701.7157317273295 345.87870172647143,698.365665872377 351.62997385684855,686.5535845174064 352.68482004513066,676.9059289634158 340.95655819777994,610.9960397105141 310.8956088237042,614.4356447560767 289.2380611946606,635.3422348720471" fill="none" stroke="black" stroke-width="1.0" />
<polygon points="584.4436601432766,328.93420186418143 579.7097984484157,257.91426959481646 496.0560395692076,291.75191307586965 495.29335177839044,299.3471370602506 498.5276152337629,313.6142491486497 539.4307537947249,337.85676094248083 577.0100366883753,340.3832087465231" fill="none" stroke="black" stroke-width="1.0" />
<polygon points="647.3967001740045,244.99994902054368 585.2932702515639,171.9020555390664 579.7097984484157,257.91426959481646 584.4436601432766,328.93420186418143 590.4499354004909,328.08687499049256 656.9208510750939,302.3962315425656" fill="none" stroke="black" stroke-width="1.0" />
<polygon points="654.2952215993005,50.0 688.499878508549,248.9359133395974 750.4026155342667,215.5679481304253 781.6048737517237,50.00000000000023" fill="none" stroke="black" stroke-width="1.0" />
<polygon points="240.93750802736383,323.41220650418586 310.8886728497167,325.6656762360418 265.4080253972405,292.8839395963482 252.3038674412478,296.1674258165235" fill="none" stroke="black" stroke-width="1.0" />
<polygon points="679.6396892382063,308.4279569163773 694.1042035226294,322.08167009654517 730.0123377452335,326.557718020288 750.6790733708488,264.12981212514364 749.5443286237805,259.80956212001615 689.7073690001793,271.23750561763063" fill="none" stroke="black" stroke-width="1.0" />
<polygon points="401.73276099809675,729.7346808991502 405.0590242387407,738.4310056069144 438.34574068894136,765.2136600515169 467.69787484749884,741.7100223338527 462.74869144089035,724.9312405205408 453.25650419158586,709.4469112132845" fill="none" stroke="black" stroke-width="1.0" />
<polygon points="325.8473026263884,328.9793714792818 310.8886728497167,325.6656762360418 240.93750802736383,323.41220650418586 202.5683500065728,349.94108843803997 233.72558720395585,359.97671351105123 317.35765663831745,362.5541677070453 343.44272898563923,346.9853404458979" fill="none" stroke="black" stroke-width="1.0" />
<polygon points="208.20924618060727,554.6759064209645 231.53759816018191,549.1901634578562 294.76551500357033,481.2841575281643 280.4340814879526,469.7047244336046 186.3000513445906,551.748948376897" fill="none" stroke="black" stroke-width="1.0" />
<polygon points="720.0005532699997,417.9644400254763 767.7473022572854,381.6256635248169 730.0123377452335,326.557718020288 694.1042035226294,322.08167009654517 670.0511314577436,355.3111987521602 669.4084256039856,419.3181491236164" fill="none" stroke="black" stroke-width="1.0" />
<polygon points="280.31189364641097,409.15301444560487 264.2361288369158,456.10826565583466 280.4340814879526,469.7047244336046 294.76551500357033,481.2841575281643 314.094950448662,487.78115402762637 323.8905343250212,487.8218441149088 343.0299994014981,478.64588169364083 385.50882510341864,415.2786261599422 361.99742675102925,350.68861574289406 343.44272898563923,346.9853404458979 317.35765663831745,362.5541677070453" fill="none" stroke="black" stroke-width="1.0" />
<polygon points="312.3757761422799,273.47075820035616 368.4912100816769,201.21171119645624 371.44269834697775,180.999697697006 267.7529282338114,239.75281166345826 280.7096036234655,256.940622373068" fill="none" stroke="black" stroke-width="1.0" />
<polygon points="720.0005532699997,417.9644400254763 669.4084256039856,419.3181491236164 637.2668778517631,434.20406258901994 640.2022149089564,446.4640039873357 696.0832590949503,493.39993739352786 731.4975256326716,464.832185199846" fill="none" stroke="black" stroke-width="1.0" />
<circle cx="405.50863573582006" cy="671.3315314897599" r="4" fill="red" />
<circle cx="232.93955246124767" cy="290.9968594423351" r="4" fill="red" />
<circle cx="262.78365044050133" cy="279.08276604340745" r="4" fill="red" />
<circle cx="414.7295661613028" cy="261.544503714603" r="4" fill="red" />
<circle cx="547.8352026584544" cy="529.6905094625038" r="4" fill="red" />
<circle cx="278.99977784058495" cy="734.5687708948699" r="4" fill="red" />
<circle cx="265.0945624274038" cy="668.6654928186096" r="4" fill="red" />
<circle cx="588.2505249902797" cy="597.3716696456545" r="4" fill="red" />
<circle cx="797.3037476278919" cy="288.2370990545244" r="4" fill="red" />
<circle cx="657.2119681320994" cy="743.9033662254506" r="4" fill="red" />
<circle cx="523.1310941577883" cy="272.5418667089348" r="4" fill="red" />
<circle cx="799.9999999999998" cy="257.3481168535177" r="4" fill="red" />
<circle cx="540.3036208730706" cy="783.5089035010335" r="4" fill="red" />
<circle cx="649.7582566039753" cy="512.1980786623897" r="4" fill="red" />
<circle cx="267.28824281907634" cy="379.7158162736031" r="4" fill="red" />
<circle cx="522.1248474718251" cy="387.1041998456211" r="4" fill="red" />
<circle cx="279.4540725933262" cy="292.62260931239416" r="4" fill="red" />
<circle cx="282.69778458751" cy="203.03510065251385" r="4" fill="red" />
<circle cx="232.21596531671742" cy="510.16712861506875" r="4" fill="red" />
<circle cx="383.5673142984221" cy="640.568506614199" r="4" fill="red" />
<circle cx="489.5177579179317" cy="353.13738510442863" r="4" fill="red" />
<circle cx="491.37072740490675" cy="434.4662175294395" r="4" fill="red" />
<circle cx="483.3246554025416" cy="703.3907568418381" r="4" fill="red" />
<circle cx="572.6517289686783" cy="670.9283480210373" r="4" fill="red" />
<circle cx="677.3921605656233" cy="497.93789633557543" r="4" fill="red" />
<circle cx="413.53148262692787" cy="483.31489947808154" r="4" fill="red" />
<circle cx="422.93305006998077" cy="704.8361788256274" r="4" fill="red" />
<circle cx="608.5796838871702" cy="606.5939944366594" r="4" fill="red" />
<circle cx="489.5357527830078" cy="557.8799460641007" r="4" fill="red" />
<circle cx="655.1415212578279" cy="334.6350072518612" r="4" fill="red" />
<circle cx="373.01584285057186" cy="542.6232843972878" r="4" fill="red" />
<circle cx="221.65065093084593" cy="602.6179369602482" r="4" fill="red" />
<circle cx="694.6673034663186" cy="649.9153683646642" r="4" fill="red" />
<circle cx="291.2777385676843" cy="594.2425053217004" r="4" fill="red" />
<circle cx="222.403700530562" cy="652.5656022055241" r="4" fill="red" />
<circle cx="266.5127709428353" cy="738.6366953486131" r="4" fill="red" />
<circle cx="283.03069722328337" cy="554.5917343912088" r="4" fill="red" />
<circle cx="359.07550285110636" cy="629.6481688856959" r="4" fill="red" />
<circle cx="736.1328128592177" cy="696.5536854098817" r="4" fill="red" />
<circle cx="250.13034491123858" cy="581.5409605825703" r="4" fill="red" />
<circle cx="520.3832258957782" cy="410.455340522691" r="4" fill="red" />
<circle cx="447.70990435471185" cy="545.1415102168761" r="4" fill="red" />
<circle cx="699.2220900180573" cy="255.3930263131042" r="4" fill="red" />
<circle cx="231.73458025897344" cy="703.1248419872376" r="4" fill="red" />
<circle cx="376.1361321103234" cy="796.9648993474863" r="4" fill="red" />
<circle cx="364.0412055344901" cy="623.74520496901" r="4" fill="red" />
<circle cx="778.5303259739871" cy="570.2753546365432" r="4" fill="red" />
<circle cx="745.8888328658584" cy="744.3325067839579" r="4" fill="red" />
<circle cx="458.1776335327253" cy="256.72468879703274" r="4" fill="red" />
<circle cx="642.2533939822779" cy="722.3057557005828" r="4" fill="red" />
<circle cx="537.7861959957472" cy="465.9443021505681" r="4" fill="red" />
<circle cx="497.127021729644" cy="563.4843738642919" r="4" fill="red" />
<circle cx="268.5308063385433" cy="544.315037303" r="4" fill="red" />
<circle cx="286.5629693656496" cy="284.821663123442" r="4" fill="red" />
<circle cx="491.35998215619594" cy="716.6392700871693" r="4" fill="red" />
<circle cx="645.6023872648975" cy="362.5264796658339" r="4" fill="red" />
<circle cx="542.3848487044771" cy="647.9729907975362" r="4" fill="red" />
<circle cx="406.47798745629586" cy="767.9702558022041" r="4" fill="red" />
<circle cx="776.8851108742231" cy="306.4593383767685" r="4" fill="red" />
<circle cx="671.3670964210985" cy="273.5204515663288" r="4" fill="red" />
<circle cx="538.1720148222894" cy="590.1503925468777" r="4" fill="red" />
<circle cx="311.32471342195436" cy="560.3380074151397" r="4" fill="red" />
<circle cx="407.13168614530116" cy="563.6037776093513" r="4" fill="red" />
<circle cx="681.6012011348062" cy="663.4055292725134" r="4" fill="red" />
<circle cx="573.4007795002753" cy="690.3204611678849" r="4" fill="red" />
<circle cx="340.5300430327069" cy="271.8955464294402" r="4" fill="red" />
<circle cx="519.1480812608696" cy="501.0690755697234" r="4" fill="red" />
<circle cx="749.8061558504987" cy="635.8577135588257" r="4" fill="red" />
<circle cx="537.1548094425568" cy="405.5679657123562" r="4" fill="red" />
<circle cx="200.00000000000006" cy="230.54096638736587" r="4" fill="red" />
<circle cx="590.3931679701933" cy="796.443525643585" r="4" fill="red" />
<circle cx="745.4032882480458" cy="656.5321951364159" r="4" fill="red" />
<circle cx="423.4098182474115" cy="291.5700606796431" r="4" fill="red" />
<circle cx="468.39510490776485" cy="776.1766991499592" r="4" fill="red" />
<circle cx="683.8512901424053" cy="237.31477941001276" r="4" fill="red" />
<circle cx="766.1284930583336" cy="457.3280772205467" r="4" fill="red" />
<circle cx="550.359454888933" cy="789.8042224800251" r="4" fill="red" />
<circle cx="601.8372588222365" cy="497.0681915204642" r="4" fill="red" />
<circle cx="325.2909408158346" cy="590.2406425772269" r="4" fill="red" />
<circle cx="715.1054128132675" cy="496.2473754542141" r="4" fill="red" />
<circle cx="459.558458918485" cy="302.4490952891599" r="4" fill="red" />
<circle cx="680.9290148346347" cy="577.6865294029801" r="4" fill="red" />
<circle cx="200.70053711819742" cy="696.5480700100561" r="4" fill="red" />
<circle cx="251.62168988156074" cy="394.5572505046032" r="4" fill="red" />
<circle cx="464.8920071696069" cy="280.31130352082073" r="4" fill="red" />
<circle cx="380.0490439304287" cy="754.2133262122795" r="4" fill="red" />
<circle cx="441.8239070731607" cy="367.92025451942175" r="4" fill="red" />
<circle cx="330.384161649729" cy="634.7536176457486" r="4" fill="red" />
<circle cx="528.8725801148323" cy="286.7360254164655" r="4" fill="red" />
<circle cx="633.9225370222323" cy="279.73387896038935" r="4" fill="red" />
<circle cx="689.0000256833923" cy="236.42951576033033" r="4" fill="red" />
<circle cx="269.6014132431514" cy="306.29196830029025" r="4" fill="red" />
<circle cx="704.3915378888926" cy="282.4603673082763" r="4" fill="red" />
<circle cx="434.21740234278485" cy="733.4944334101067" r="4" fill="red" />
<circle cx="268.4400701979718" cy="342.3418417999226" r="4" fill="red" />
<circle cx="233.7642849317984" cy="511.9436042560392" r="4" fill="red" />
<circle cx="694.3500606522673" cy="363.0159642430766" r="4" fill="red" />
<circle cx="311.92758957909234" cy="415.2037902456432" r="4" fill="red" />
<circle cx="306.9311520065645" cy="245.80308565130804" r="4" fill="red" />
<circle cx="697.3252061908782" cy="474.2059851427881" r="4" fill="red" />
</svg>