<svg viewBox="0 0 1000 1000" xmlns="http://www.w3.org/2000/svg">
<rect width="100%" height="100%" fill="white" />
<polygon points="248.06911617426317,244.38061275433893 271.0201561344844,238.20867109498317 287.0082262193045,151.77020169701973 271.53919151848544,55.97481436823307 222.95272489332092,221.68699252118415" fill="none" stroke="black" stroke-width="1.0" />
<polygon points="329.0702586455633,767.5883305951015 299.16352010684295,847.8734273277983 292.3356856581619,880.1049731188023 294.3429826332218,950.0 400.73936643649824,950.0 411.11951672285477,824.8712809977826 345.10343426375573,736.1892328701462" fill="none" stroke="black" stroke-width="1.0" />
<polygon points="379.3959918364776,337.5252272402438 415.4168938278679,392.2899504805529 446.01369807681925,373.19062924326306 449.3696152381953,348.7894511898111 448.71526687140914,345.0661240087561 407.15825016191843,278.9750613155211 401.75337224525356,278.422057236167 400.7989190848374,278.64722664572844" fill="none" stroke="black" stroke-width="1.0" />
<polygon points="607.5587078302253,345.58413150394335 594.9159284110449,317.1813316742895 580.9761783620077,318.9203875055056 545.6006650442648,386.5042761859213 558.3398555034062,392.38702736496305 577.6940472542747,393.3607127093268" fill="none" stroke="black" stroke-width="1.0" />
<polygon points="407.15825016191866,278.97506131552143 448.7152668714093,345.06612400875633 445.22712147380497,273.9243722713775" fill="none" stroke="black" stroke-width="1.0" />
<polygon points="201.1523736562907,447.75517368588726 50.0,460.52649883339143 50.00000000000003,501.815227465557 195.92709627575732,517.3766416295792 256.9750208273544,488.09152415005883" fill="none" stroke="black" stroke-width="1.0" />
<polygon points="612.5716734552877,444.8575790281308 622.4278375413672,466.50199117319744 654.4448926727691,439.2981837458427 656.858673205644,406.09555174188904 643.1775330123976,401.03375784209265" fill="none" stroke="black" stroke-width="1.0" />
<polygon points="236.86151269208872,625.7920420713922 252.42399643686122,624.9080701917231 269.738080805294,536.7725586538158 269.72427494301246,536.7773123463948 233.6850005214883,570.5200223070507" fill="none" stroke="black" stroke-width="1.0" />
<polygon points="553.2626539738885,640.9733929831747 586.5136436238056,664.2495306704824 603.1401317094688,650.4847365541318 609.1501037838174,556.1732889107578 601.2831033750831,550.3738905990268 600.2676324797515,550.6441376677363" fill="none" stroke="black" stroke-width="1.0" />
<polygon points="553.2626539738892,640.973392983174 540.6002583262289,643.7946657131258 535.3441197563786,648.4385841716174 584.5868235029438,759.8709021386738 604.3257357969838,739.9780935886206 603.2570283983018,713.1009763348438 586.513643623806,664.249530670482" fill="none" stroke="black" stroke-width="1.0" />
<polygon points="443.5399131340856,749.9886993127861 411.11951672285466,824.8712809977827 400.73936643649813,950.0 572.7358330059562,950.0 561.7025099169246,786.2629378664625 503.36301894357285,742.6530932661901" fill="none" stroke="black" stroke-width="1.0" />
<polygon points="294.6005189317462,345.43043653165887 403.00611903198956,419.82570990865645 415.4168938278681,392.28995048055265 379.3959918364779,337.52522724024357 345.676169997377,319.577943375587" fill="none" stroke="black" stroke-width="1.0" />
<polygon points="632.7277832232917,191.4546750081007 576.4851158252718,253.33266479441443 618.6552426183014,302.02702053370695 621.1309794258997,302.03921026813 653.5120081563989,234.54723378694666" fill="none" stroke="black" stroke-width="1.0" />
<polygon points="673.3133103469736,252.62441883735437 717.3070374191116,247.95070179675224 731.2924530138066,233.23765922429618 639.578819107016,74.1917180946931 632.7277832232916,191.45467500810093 653.5120081563985,234.54723378694666" fill="none" stroke="black" stroke-width="1.0" />
<polygon points="613.214292395269,499.20979087628893 614.606136395359,507.29514525277364 713.6660322057064,482.46631783297937 718.440694076002,475.83147899373864 654.44489267277,439.2981837458434 622.4278375413674,466.5019911731987" fill="none" stroke="black" stroke-width="1.0" />
<polygon points="528.131693945654,268.9576161115966 518.9537345837141,372.7195304841464 543.4605105772293,386.32652514480606 545.600665044265,386.5042761859213 580.9761783620081,318.9203875055048 539.6611057202495,269.11577466964786" fill="none" stroke="black" stroke-width="1.0" />
<polygon points="764.7210744954357,272.67435590907576 949.9999999999998,263.83293481126555 949.9999999999998,131.2011149772659 732.3360004853512,233.20047706467358" fill="none" stroke="black" stroke-width="1.0" />
<polygon points="584.5868235029445,759.8709021386733 535.3441197563793,648.4385841716169 497.7460926202673,673.8667518821354 503.36301894357234,742.6530932661904 561.7025099169246,786.2629378664633" fill="none" stroke="black" stroke-width="1.0" />
<polygon points="277.98299062388816,367.0717837078246 328.15871950806616,440.59940966082365 401.9387075008416,423.4176399641675 403.0061190319895,419.82570990865645 294.6005189317465,345.430436531659 285.4465267592286,347.0622012594173" fill="none" stroke="black" stroke-width="1.0" />
<polygon points="236.86151269208895,625.7920420713921 104.58997435164761,683.0294504861722 168.28664047055582,710.6017143735288 239.484289644996,729.0612427915987 255.71183965641862,729.053335193815 333.1618317219553,698.6584882119854 285.33957216566364,627.3865237280723 252.42399643686014,624.908070191723" fill="none" stroke="black" stroke-width="1.0" />
<polygon points="545.6006650442644,386.5042761859214 543.4605105772295,386.3265251448064 497.31155096142527,488.3646813094547 498.31997236539036,489.6800952231324 567.891902312314,461.0475478972238 558.3398555034062,392.3870273649635" fill="none" stroke="black" stroke-width="1.0" />
<polygon points="393.55753658308276,221.42146690476034 382.3046601108839,196.4172531199299 331.8875936279728,239.1245762840333 327.64105888948393,260.43224503832266 332.0297935391857,264.52360218511046 341.91397387950803,264.2797487224591 392.2194054672807,225.61374153538623" fill="none" stroke="black" stroke-width="1.0" />
<polygon points="198.9125889485386,373.92821426793967 274.3215858164211,369.0858471759284 277.98299062388816,367.0717837078246 285.4465267592289,347.0622012594173 264.27309502325835,311.8578313688978 252.14404617145192,307.43747567239143 226.546901408935,313.91952426514 156.11200937119656,360.1032583037239" fill="none" stroke="black" stroke-width="1.0" />
<polygon points="50.00000000000003,684.5742844447566 50.00000000000003,950.0 294.3429826332217,950.0 292.3356856581618,880.1049731188023 270.0759886140982,838.7901754967294 168.28664047055588,710.6017143735289 104.58997435164756,683.0294504861722" fill="none" stroke="black" stroke-width="1.0" />
<polygon points="50.00000000000003,684.5742844447566 104.58997435164778,683.0294504861722 236.8615126920887,625.7920420713922 233.68500052148826,570.5200223070507 218.51643992998606,537.289166034774 195.9270962757575,517.3766416295792 50.00000000000003,501.81522746555686" fill="none" stroke="black" stroke-width="1.0" />
<polygon points="50.00000000000003,372.24955975649345 156.11200937119665,360.1032583037238 226.5469014089345,313.91952426514047 206.75227702446819,278.39270474429577 176.52233570153388,254.6516676932372 156.12922504285123,244.52941634239335 50.00000000000003,242.9847900936145" fill="none" stroke="black" stroke-width="1.0" />
<polygon points="639.5788191070158,74.19171809469526 731.2924530138059,233.23765922429686 732.3360004853466,233.20047706467392 949.9999999999998,131.20111497726396 949.9999999999998,50.00000000000023 638.3248425962545,50.00000000000023" fill="none" stroke="black" stroke-width="1.0" />
<polygon points="771.2700870554313,782.1321295475376 749.0495763792828,691.1979208127112 738.3033198008775,666.0430801177228 684.8953564855639,675.859479482524 674.2505182267826,698.5545223257238" fill="none" stroke="black" stroke-width="1.0" />
<polygon points="737.2663716599016,441.59718434286685 719.5597443196482,475.07799213315025 769.7415171318778,510.50699863577245 950.0,487.2843933251165 949.9999999999998,472.77781579958685" fill="none" stroke="black" stroke-width="1.0" />
<polygon points="539.6611057202501,269.11577466964786 580.9761783620086,318.92038750550546 594.9159284110441,317.181331674289 618.6552426183013,302.02702053370695 576.4851158252718,253.33266479441443" fill="none" stroke="black" stroke-width="1.0" />
<polygon points="702.4057875109502,577.0835029773586 706.8866513797093,568.0951863905741 713.666032205706,482.4663178329795 614.606136395359,507.29514525277364 601.2831033750831,550.3738905990269 609.1501037838141,556.1732889107565 639.4723721149458,573.2477277308359 683.0793799658549,579.924365266995" fill="none" stroke="black" stroke-width="1.0" />
<polygon points="417.3930723293861,237.007342250571 412.40202036770086,232.01441125508597 393.5575365830822,221.42146690476 392.2194054672798,225.61374153538634 384.9726675201707,266.8953282100898 400.79891908483677,278.6472266457283 401.75337224525305,278.42205723616735" fill="none" stroke="black" stroke-width="1.0" />
<polygon points="732.3360004853484,233.20047706467358 731.2924530138057,233.23765922429686 717.3070374191122,247.95070179675224 735.0457329507349,285.2884181315193 764.7210744954336,272.6743559090761" fill="none" stroke="black" stroke-width="1.0" />
<polygon points="269.738080805294,536.7725586538158 252.42399643686124,624.908070191723 285.33957216566375,627.3865237280723 312.5120758037133,595.5971824972219 319.3274060768063,543.273642216851 296.77263861900167,516.8674009320214" fill="none" stroke="black" stroke-width="1.0" />
<polygon points="671.7462551144819,329.61498790089206 655.9484066581961,329.56841807122305 643.3027816070721,341.5289519846614 621.112364217194,389.7327621709601 643.177533012399,401.0337578420931 656.8586732056442,406.09555174188904 658.4266357837939,405.272491441963" fill="none" stroke="black" stroke-width="1.0" />
<polygon points="497.74609262026723,673.8667518821353 535.3441197563793,648.4385841716168 540.6002583262293,643.794665713126 491.6329685388196,565.0255133225277 435.1137411926751,594.6737219072781 447.8923066319777,639.4838258723103" fill="none" stroke="black" stroke-width="1.0" />
<polygon points="579.0002120957145,393.7584593106244 621.1123642171941,389.7327621709603 643.3027816070728,341.5289519846606 607.5587078302239,345.584131503943 577.6940472542733,393.36071270932644" fill="none" stroke="black" stroke-width="1.0" />
<polygon points="761.9688006609556,542.3514327640586 801.6808982064515,570.4744500847205 949.9999999999998,538.1297164270663 950.0,487.2843933251163 769.7415171318785,510.5069986357722" fill="none" stroke="black" stroke-width="1.0" />
<polygon points="671.7892917755469,661.748057091597 646.2741903212918,655.7179836162129 603.2570283983018,713.1009763348436 604.325735796984,739.9780935886207 630.7968829052526,736.640532303699 674.2505182267821,698.5545223257241 684.8953564855638,675.8594794825237" fill="none" stroke="black" stroke-width="1.0" />
<polygon points="654.4448926727697,439.2981837458433 718.4406940760014,475.83147899373887 719.5597443196489,475.07799213314945 737.2663716599016,441.59718434286685 734.1615516337192,422.96767819047193 718.7168011849813,401.71507863140573 658.4266357837944,405.27249144196344 656.8586732056444,406.0955517418889" fill="none" stroke="black" stroke-width="1.0" />
<polygon points="226.1754656240347,404.82627921094115 225.33848567605096,436.7063533705027 259.8018057816143,440.52988500863273 253.7805075401391,409.4665197908597" fill="none" stroke="black" stroke-width="1.0" />
<polygon points="401.7533722452531,278.42205723616723 407.158250161919,278.9750613155212 445.22712147380446,273.92437227137736 462.51350268822966,255.28840195957468 423.3564450319642,238.32198388213294 417.39307232938586,237.00734225057124" fill="none" stroke="black" stroke-width="1.0" />
<polygon points="612.5716734552902,444.85757902813634 643.1775330124024,401.0337578420947 621.1123642171935,389.7327621709603 579.0002120957132,393.7584593106244" fill="none" stroke="black" stroke-width="1.0" />
<polygon points="253.78050754013927,409.4665197908596 259.8018057816144,440.52988500863285 293.2820445474037,470.4632365382199 310.5794546390586,455.9396945678154 328.15871950806616,440.59940966082365 277.9829906238882,367.07178370782447 274.32158581642113,369.08584717592805" fill="none" stroke="black" stroke-width="1.0" />
<polygon points="287.0082262225316,151.77020170330093 271.0201561383909,238.20867109759172 308.42373849356983,263.184840121948 327.64105888948404,260.43224503832255 331.8875936279727,239.1245762840332" fill="none" stroke="black" stroke-width="1.0" />
<polygon points="395.4760547913696,711.5056334386719 447.8923066319778,639.4838258723103 435.1137411926751,594.6737219072781 431.48154028246495,593.0570238445785 426.10866554629405,592.9760729401249 388.9046446877197,609.0851870426359 338.41556058581966,701.180628626915 348.6846011310463,711.7039526349035" fill="none" stroke="black" stroke-width="1.0" />
<polygon points="50.00000000000003,372.2495597564937 50.00000000000003,460.52649883339154 201.15237365629048,447.75517368588737 225.33848567605094,436.7063533705028 226.17546562403473,404.82627921094115 198.91258894853902,373.9282142679399 156.11200937119642,360.10325830372403" fill="none" stroke="black" stroke-width="1.0" />
<polygon points="683.079379965855,579.9243652669949 639.4723721149448,573.2477277308355 635.2465851742202,641.7165357574827 646.2741903212918,655.7179836162129 671.7892917755464,661.7480570915968" fill="none" stroke="black" stroke-width="1.0" />
<polygon points="646.2741903212919,655.7179836162127 635.2465851742202,641.7165357574827 603.1401317094683,650.4847365541323 586.513643623806,664.2495306704819 603.2570283983017,713.1009763348437" fill="none" stroke="black" stroke-width="1.0" />
<polygon points="567.8919023123137,461.04754789722415 613.2142923952689,499.2097908762895 622.4278375413676,466.50199117319744 612.5716734552898,444.85757902813475 579.0002120957133,393.75845931062395 577.6940472542738,393.36071270932644 558.339855503406,392.3870273649636" fill="none" stroke="black" stroke-width="1.0" />
<polygon points="299.16352010684295,847.8734273277984 272.18612843712606,755.2855868668277 255.71183965641868,729.053335193815 239.48428964499604,729.0612427915987 270.07598861409815,838.7901754967293 292.3356856581619,880.1049731188024" fill="none" stroke="black" stroke-width="1.0" />
<polygon points="218.51643992998615,537.2891660347741 233.68500052148835,570.5200223070508 269.7242749430129,536.7773123463946" fill="none" stroke="black" stroke-width="1.0" />
<polygon points="329.0702586455633,767.5883305951018 272.18612843712606,755.2855868668278 299.16352010684295,847.8734273277984" fill="none" stroke="black" stroke-width="1.0" />
<polygon points="671.7892917755464,661.7480570915965 684.8953564855639,675.859479482524 738.3033198008775,666.0430801177226 748.9652940843739,634.0285585308228 744.5112910904579,617.7114814786426 702.4057875109497,577.0835029773588 683.0793799658552,579.9243652669949" fill="none" stroke="black" stroke-width="1.0" />
<polygon points="239.48428964499604,729.0612427915987 168.28664047055585,710.6017143735288 270.07598861409815,838.7901754967293" fill="none" stroke="black" stroke-width="1.0" />
<polygon points="673.3133103469726,252.624418837353 653.5120081563995,234.54723378694746 621.1309794259009,302.0392102681302 655.9484066581969,329.5684180712236 671.7462551144819,329.6149879008922 692.0722214311587,323.15364653547" fill="none" stroke="black" stroke-width="1.0" />
<polygon points="949.9999999999998,263.83293481126555 764.7210744954336,272.674355909076 735.0457329507349,285.28841813151905 708.0927272689319,328.1725999001495 718.0577600037807,338.7132693469812 851.8796944378084,337.16252548331374 949.9999999999998,312.00434268351614" fill="none" stroke="black" stroke-width="1.0" />
<polygon points="226.54690140893447,313.91952426514035 252.1440461714522,307.43747567239143 241.73378173181493,265.9550001282248 206.75227702446844,278.392704744296" fill="none" stroke="black" stroke-width="1.0" />
<polygon points="539.6611057202497,269.11577466964786 576.4851158252725,253.33266479441397 632.7277832232917,191.45467500810082 639.5788191070159,74.19171809469492 638.3248425962547,50.000000000000114 491.00339308318684,50.0 489.5926777812418,138.92625310709002 496.1423039517144,240.3116833130332 512.7111375576055,259.15799844730293 528.1316939456542,268.95761611159685" fill="none" stroke="black" stroke-width="1.0" />
<polygon points="198.9125889485389,373.9282142679398 226.17546562403467,404.82627921094115 253.78050754013915,409.4665197908598 274.321585816421,369.0858471759284" fill="none" stroke="black" stroke-width="1.0" />
<polygon points="748.9652940843741,634.0285585308234 738.3033198008773,666.043080117723 749.0495763792821,691.19792081271 887.1816235174977,652.4566521124719" fill="none" stroke="black" stroke-width="1.0" />
<polygon points="403.00611903198933,419.825709908657 401.938707500841,423.4176399641659 414.7003664272842,450.05345996063386 497.311550961425,488.36468130945445 543.4605105772296,386.3265251448063 518.9537345837141,372.7195304841464 446.01369807681886,373.1906292432633 415.41689382786814,392.28995048055253" fill="none" stroke="black" stroke-width="1.0" />
<polygon points="515.8355413214053,537.2757784642126 600.2676324797505,550.6441376677365 601.2831033750831,550.3738905990268 614.6061363953593,507.2951452527727 613.2142923952692,499.20979087628905 567.891902312314,461.0475478972238 498.31997236539036,489.6800952231324" fill="none" stroke="black" stroke-width="1.0" />
<polygon points="769.7415171318789,510.50699863577245 719.5597443196486,475.0779921331498 718.440694076005,475.8314789937366 713.6660322057062,482.4663178329795 706.8866513797093,568.0951863905734 761.9688006609563,542.3514327640582" fill="none" stroke="black" stroke-width="1.0" />
<polygon points="491.0033930831871,50.000000000000114 408.0160988623951,50.000000000000114 382.3046601108839,196.4172531199298 393.55753658308276,221.42146690476034 412.4020203676986,232.01441125508472 447.0684260281465,194.69947752157555 489.592677781242,138.92625310709354" fill="none" stroke="black" stroke-width="1.0" />
<polygon points="272.1861284371261,755.2855868668278 329.0702586455631,767.5883305951016 345.10343426375584,736.1892328701456 348.6846011310462,711.7039526349035 338.41556058581966,701.1806286269151 333.1618317219553,698.6584882119854 255.7118396564187,729.053335193815" fill="none" stroke="black" stroke-width="1.0" />
<polygon points="356.80068884836305,537.7265791041594 367.31002711584995,521.6670890667071 310.57945463905565,455.9396945678177 293.28204454740364,470.4632365382197 288.5825858045841,482.81457832319404 296.7726386190016,516.8674009320215 319.3274060768063,543.2736422168512" fill="none" stroke="black" stroke-width="1.0" />
<polygon points="288.5825858045842,482.8145783231939 293.28204454740364,470.4632365382198 259.8018057816144,440.52988500863285 225.33848567605096,436.7063533705027 201.15237365629065,447.75517368588714 256.97502082735446,488.09152415005883" fill="none" stroke="black" stroke-width="1.0" />
<polygon points="384.97266752017117,266.89532821009004 341.9139738795087,264.2797487224591 332.0297935391857,264.5236021851106 345.67616999737686,319.57794337558687 379.3959918364774,337.52522724024357 400.79891908483717,278.6472266457281" fill="none" stroke="black" stroke-width="1.0" />
<polygon points="734.1615516337183,422.9676781904724 737.2663716599013,441.5971843428672 949.9999999999998,472.7778157995873 949.9999999999998,312.00434268351614 851.879694437808,337.16252548331397" fill="none" stroke="black" stroke-width="1.0" />
<polygon points="269.73808080529403,536.7725586538158 296.7726386190016,516.8674009320215 288.58258580458414,482.81457832319404 256.97502082735434,488.09152415005894 195.92709627575744,517.3766416295792 218.5164399299861,537.2891660347741 269.7242749430124,536.7773123463946" fill="none" stroke="black" stroke-width="1.0" />
<polygon points="462.5135026882305,255.28840195957446 496.14230395171444,240.3116833130332 489.5926777812416,138.92625310709218 447.06842602813595,194.69947752158805 423.35644503196465,238.32198388213237" fill="none" stroke="black" stroke-width="1.0" />
<polygon points="572.7358330059562,950.0 886.9601557064104,950.0 781.4688886241622,808.2839652836219 630.7968829052527,736.640532303699 604.3257357969838,739.9780935886207 584.5868235029452,759.8709021386725 561.7025099169248,786.2629378664633" fill="none" stroke="black" stroke-width="1.0" />
<polygon points="618.655242618303,302.02702053370683 594.9159284110448,317.1813316742896 607.5587078302251,345.5841315039429 643.3027816070728,341.5289519846606 655.9484066581958,329.5684180712228 621.1309794259016,302.03921026813066" fill="none" stroke="black" stroke-width="1.0" />
<polygon points="338.41556058581955,701.1806286269151 388.90464468771967,609.085187042636 312.5120758037133,595.5971824972219 285.33957216566364,627.3865237280725 333.1618317219554,698.6584882119855" fill="none" stroke="black" stroke-width="1.0" />
<polygon points="271.5391915185877,55.974814353784836 287.008226222856,151.770201703932 331.8875936279729,239.12457628403308 382.3046601108837,196.41725311993002 408.016098862395,50.000000000000114 271.58147327217443,50.00000000000023" fill="none" stroke="black" stroke-width="1.0" />
<polygon points="887.1816235174983,652.4566521124718 749.0495763792824,691.1979208127099 771.2700870554315,782.1321295475391 781.468888624162,808.2839652836219 886.9601557064102,950.0 949.9999999999998,950.0 949.9999999999998,655.8545172666845" fill="none" stroke="black" stroke-width="1.0" />
<polygon points="310.5794546390525,455.9396945678204 367.31002711584745,521.6670890667108 412.90305595520147,457.52891982601125 414.7003664272838,450.0534599606341 401.9387075008418,423.4176399641673 328.15871950806616,440.59940966082365" fill="none" stroke="black" stroke-width="1.0" />
<polygon points="630.7968829052527,736.640532303699 781.4688886241622,808.283965283622 771.2700870554315,782.1321295475382 674.2505182267821,698.5545223257241" fill="none" stroke="black" stroke-width="1.0" />
<polygon points="264.27309502325835,311.85783136889813 308.42373849357,263.1848401219481 271.02015613065225,238.20867109242408 248.06911617555127,244.38061275040275 241.66432201608694,263.94681030790025 241.733781731815,265.9550001282247 252.14404617145223,307.43747567239154" fill="none" stroke="black" stroke-width="1.0" />
<polygon points="443.53991313408545,749.9886993127861 503.36301894357234,742.6530932661901 497.7460926202673,673.8667518821353 447.8923066319777,639.4838258723103 395.47605479136956,711.5056334386718" fill="none" stroke="black" stroke-width="1.0" />
<polygon points="431.4815402824644,593.0570238445781 412.9030559552014,457.52891982601113 367.3100271158495,521.6670890667077 356.80068884836317,537.7265791041594 426.10866554629445,592.9760729401246" fill="none" stroke="black" stroke-width="1.0" />
<polygon points="515.8355413214056,537.2757784642126 498.31997236539024,489.6800952231322 497.31155096142516,488.36468130945445 414.70036642728394,450.0534599606335 412.9030559552015,457.528919826011 431.48154028246455,593.0570238445781 435.1137411926751,594.6737219072781 491.63296853881985,565.0255133225278" fill="none" stroke="black" stroke-width="1.0" />
<polygon points="345.10343426375584,736.189232870146 411.11951672285477,824.8712809977824 443.5399131340855,749.9886993127861 395.47605479136973,711.5056334386719 348.6846011310462,711.7039526349037" fill="none" stroke="black" stroke-width="1.0" />
<polygon points="635.2465851742205,641.7165357574827 639.4723721149451,573.2477277308358 609.1501037838174,556.1732889107582 603.1401317094688,650.484736554132" fill="none" stroke="black" stroke-width="1.0" />
<polygon points="392.21940546727967,225.61374153538702 341.91397387950815,264.2797487224591 384.9726675201706,266.8953282100898" fill="none" stroke="black" stroke-width="1.0" />
<polygon points="734.161551633719,422.96767819047204 851.8796944378082,337.16252548331374 718.0577600037811,338.7132693469807 718.7168011849815,401.71507863140675" fill="none" stroke="black" stroke-width="1.0" />
<polygon points="744.5112910904579,617.7114814786424 801.680898206451,570.4744500847206 761.9688006609551,542.3514327640588 706.8866513797093,568.0951863905734 702.4057875109497,577.0835029773588" fill="none" stroke="black" stroke-width="1.0" />
<polygon points="176.52233570153305,254.65166769323685 241.6643220160867,263.94681030790036 248.0691161703364,244.38061276633357 222.9527248808407,221.68699252545036 156.12922504285115,244.52941634239335" fill="none" stroke="black" stroke-width="1.0" />
<polygon points="744.5112910904581,617.7114814786423 748.9652940843741,634.028558530823 887.1816235174992,652.4566521124718 949.9999999999998,655.8545172666844 949.9999999999998,538.1297164270663 801.6808982064513,570.4744500847205" fill="none" stroke="black" stroke-width="1.0" />
<polygon points="327.6410588894838,260.43224503832255 308.42373849357,263.184840121948 264.2730950232585,311.8578313688978 285.4465267592289,347.0622012594172 294.6005189317456,345.430436531659 345.67616999737686,319.577943375587 332.0297935391858,264.5236021851106" fill="none" stroke="black" stroke-width="1.0" />
<polygon points="717.3070374191122,247.95070179675213 673.3133103469736,252.62441883735414 692.0722214311595,323.15364653546953 708.0927272689321,328.1725999001494 735.0457329507346,285.2884181315193" fill="none" stroke="black" stroke-width="1.0" />
<polygon points="241.73378173181487,265.9550001282247 241.6643220160868,263.94681030790014 176.5223357015329,254.65166769323673 206.75227702446838,278.392704744296" fill="none" stroke="black" stroke-width="1.0" />
<polygon points="423.3564450319642,238.32198388213328 447.0684260281368,194.6994775215867 412.40202036769915,232.01441125508404 417.3930723293869,237.00734225057158" fill="none" stroke="black" stroke-width="1.0" />
<polygon points="515.8355413214056,537.2757784642126 491.6329685388199,565.0255133225276 540.6002583262292,643.7946657131254 553.2626539738887,640.973392983174 600.2676324797511,550.6441376677363" fill="none" stroke="black" stroke-width="1.0" />
<polygon points="426.10866554629445,592.9760729401248 356.80068884836305,537.7265791041594 319.3274060768063,543.2736422168512 312.51207580371323,595.597182497222 388.9046446877195,609.0851870426361" fill="none" stroke="black" stroke-width="1.0" />
<polygon points="718.716801184981,401.7150786314053 718.0577600037807,338.71326934698084 708.0927272689314,328.1725999001494 692.072221431159,323.15364653546953 671.7462551144816,329.6149879008922 658.4266357837935,405.27249144196344" fill="none" stroke="black" stroke-width="1.0" />
<polygon points="50.00000000000003,242.98479009361438 156.12922504285078,244.52941634239312 222.95272489442567,221.6869925208066 271.5391915184609,55.974814371707 271.5814732721744,50.00000000000023 50.00000000000003,50.00000000000023" fill="none" stroke="black" stroke-width="1.0" />
<polygon points="446.0136980768192,373.1906292432632 518.953734583714,372.7195304841463 528.1316939456541,268.9576161115966 512.7111375576035,259.1579984473003 449.36961523819537,348.78945118981096" fill="none" stroke="black" stroke-width="1.0" />
<polygon points="445.2271214738049,273.92437227137725 448.7152668714093,345.06612400875645 449.3696152381955,348.78945118981073 512.7111375576037,259.1579984473001 496.14230395171467,240.31168331303274 462.51350268823086,255.2884019595739" fill="none" stroke="black" stroke-width="1.0" />
<circle cx="252.68250549120359" cy="214.99370881890673" r="4" fill="red" />
<circle cx="363.04629492884004" cy="791.6241456818314" r="4" fill="red" />
<circle cx="416.0707717637896" cy="305.2129473690384" r="4" fill="red" />
<circle cx="594.2853307329782" cy="342.15470711051944" r="4" fill="red" />
<circle cx="426.9430839676588" cy="298.37660911822" r="4" fill="red" />
<circle cx="219.6337853493776" cy="474.71995248350936" r="4" fill="red" />
<circle cx="628.8473508152409" cy="427.8565272445694" r="4" fill="red" />
<circle cx="256.3709030379512" cy="561.4144013787726" r="4" fill="red" />
<circle cx="595.3029055930198" cy="629.7437811885333" r="4" fill="red" />
<circle cx="557.1001786914471" cy="684.3180621052276" r="4" fill="red" />
<circle cx="464.01399698216943" cy="800.0" r="4" fill="red" />
<circle cx="335.2010370084216" cy="358.40413719593676" r="4" fill="red" />
<circle cx="614.2033128832126" cy="270.5822181076402" r="4" fill="red" />
<circle cx="706.1838821577395" cy="226.21852991060814" r="4" fill="red" />
<circle cx="661.6027413676582" cy="466.4074230325173" r="4" fill="red" />
<circle cx="554.2992781229875" cy="321.2247611685573" r="4" fill="red" />
<circle cx="755.2021048173488" cy="245.13748261166052" r="4" fill="red" />
<circle cx="547.2269038727648" cy="688.6811298020563" r="4" fill="red" />
<circle cx="321.3081986497073" cy="378.64818511737053" r="4" fill="red" />
<circle cx="263.53538570062136" cy="687.5464057353468" r="4" fill="red" />
<circle cx="543.4107684075476" cy="452.3243742040504" r="4" fill="red" />
<circle cx="370.76666819797356" cy="237.9001959185506" r="4" fill="red" />
<circle cx="237.65965114405927" cy="347.4474362468285" r="4" fill="red" />
<circle cx="216.6636923404274" cy="795.8280693154335" r="4" fill="red" />
<circle cx="210.1052972097632" cy="564.0733101832642" r="4" fill="red" />
<circle cx="200.2288407037743" cy="290.3616430096698" r="4" fill="red" />
<circle cx="737.7945753100639" cy="207.99026505379084" r="4" fill="red" />
<circle cx="705.378850439991" cy="708.134056506727" r="4" fill="red" />
<circle cx="776.8941252226214" cy="482.16712550226407" r="4" fill="red" />
<circle cx="588.1690376710084" cy="293.1283360302434" r="4" fill="red" />
<circle cx="675.331902881311" cy="521.1828373568213" r="4" fill="red" />
<circle cx="402.5868182679102" cy="248.05686185045852" r="4" fill="red" />
<circle cx="739.574962258625" cy="257.9582689935942" r="4" fill="red" />
<circle cx="272.78991280383764" cy="564.6398903487935" r="4" fill="red" />
<circle cx="649.7563698658339" cy="371.34311982473105" r="4" fill="red" />
<circle cx="502.4185575082954" cy="622.4276174878859" r="4" fill="red" />
<circle cx="616.4564111309719" cy="356.01362656400227" r="4" fill="red" />
<circle cx="783.8433857977827" cy="536.1086687346685" r="4" fill="red" />
<circle cx="646.9827928640177" cy="680.7440845140998" r="4" fill="red" />
<circle cx="681.4281234331788" cy="431.67906894348005" r="4" fill="red" />
<circle cx="236.79291088093214" cy="418.64786698278044" r="4" fill="red" />
<circle cx="421.1995765785073" cy="255.08571518960218" r="4" fill="red" />
<circle cx="622.929095951054" cy="423.7233121963528" r="4" fill="red" />
<circle cx="272.9682743229147" cy="411.6356630328585" r="4" fill="red" />
<circle cx="296.44838961388876" cy="223.0888547365887" r="4" fill="red" />
<circle cx="392.57125569857885" cy="653.752939464413" r="4" fill="red" />
<circle cx="214.8474024725217" cy="418.0717092739176" r="4" fill="red" />
<circle cx="658.1110945674803" cy="633.6568063679032" r="4" fill="red" />
<circle cx="622.0535619710577" cy="662.0558859533108" r="4" fill="red" />
<circle cx="589.0623447786188" cy="445.97333009578415" r="4" fill="red" />
<circle cx="263.5758341821886" cy="770.5526201981941" r="4" fill="red" />
<circle cx="244.26251423578339" cy="548.4819028523456" r="4" fill="red" />
<circle cx="287.6493868305481" cy="763.5382902878847" r="4" fill="red" />
<circle cx="692.5636575713914" cy="638.4105942503925" r="4" fill="red" />
<circle cx="240.33425594421718" cy="777.0322181264223" r="4" fill="red" />
<circle cx="650.0027672013243" cy="287.7579361596097" r="4" fill="red" />
<circle cx="757.8674803059739" cy="300.9925200694943" r="4" fill="red" />
<circle cx="220.36282435002275" cy="279.14350839993824" r="4" fill="red" />
<circle cx="555.723145852873" cy="217.42792859328483" r="4" fill="red" />
<circle cx="240.72835906083623" cy="395.23567313337935" r="4" fill="red" />
<circle cx="791.4773946965433" cy="671.3523865758001" r="4" fill="red" />
<circle cx="493.933004455657" cy="429.94698699595835" r="4" fill="red" />
<circle cx="556.6427249374135" cy="484.4756439558539" r="4" fill="red" />
<circle cx="745.4302708843286" cy="526.7326424631876" r="4" fill="red" />
<circle cx="421.00543099490574" cy="215.29078309178317" r="4" fill="red" />
<circle cx="289.67764335551226" cy="754.1602514690302" r="4" fill="red" />
<circle cx="347.70748222447753" cy="500.64939891307245" r="4" fill="red" />
<circle cx="232.5560849006118" cy="456.836406744088" r="4" fill="red" />
<circle cx="372.0323991187216" cy="289.2044199676112" r="4" fill="red" />
<circle cx="786.8699305828293" cy="414.1059872011591" r="4" fill="red" />
<circle cx="244.03363588026525" cy="525.5840214196012" r="4" fill="red" />
<circle cx="434.1123445115253" cy="225.28413914996452" r="4" fill="red" />
<circle cx="660.3508518415065" cy="786.7699595575943" r="4" fill="red" />
<circle cx="613.8938879828386" cy="333.42645970092656" r="4" fill="red" />
<circle cx="349.27482068324775" cy="630.0167228700114" r="4" fill="red" />
<circle cx="339.48905680367284" cy="200.97619094090862" r="4" fill="red" />
<circle cx="795.6095137707157" cy="686.0854628503722" r="4" fill="red" />
<circle cx="349.3828924106523" cy="499.2033203073436" r="4" fill="red" />
<circle cx="688.3327707938691" cy="727.9216928420959" r="4" fill="red" />
<circle cx="266.7996669014561" cy="267.4899172301558" r="4" fill="red" />
<circle cx="451.32416959771643" cy="696.5123152058393" r="4" fill="red" />
<circle cx="394.4174630762511" cy="531.2164336130731" r="4" fill="red" />
<circle cx="450.5365717810915" cy="523.5235053523044" r="4" fill="red" />
<circle cx="393.0609051021142" cy="769.280875290458" r="4" fill="red" />
<circle cx="613.5466964723593" cy="630.9063619404446" r="4" fill="red" />
<circle cx="374.82789048423115" cy="243.1839465498382" r="4" fill="red" />
<circle cx="758.7308974178752" cy="375.501374075114" r="4" fill="red" />
<circle cx="763.342345884191" cy="565.0578845158115" r="4" fill="red" />
<circle cx="219.29912317010354" cy="251.9411012597593" r="4" fill="red" />
<circle cx="799.7711592962257" cy="609.1466193285548" r="4" fill="red" />
<circle cx="308.18527786906486" cy="305.0302719077905" r="4" fill="red" />
<circle cx="710.998099724339" cy="271.53478929279424" r="4" fill="red" />
<circle cx="216.83385302708695" cy="269.21814590291785" r="4" fill="red" />
<circle cx="428.44816436331587" cy="222.2052483837358" r="4" fill="red" />
<circle cx="538.3356850086473" cy="600.0995317174594" r="4" fill="red" />
<circle cx="358.838929254688" cy="575.8480858119619" r="4" fill="red" />
<circle cx="678.1630952717129" cy="376.3441673233747" r="4" fill="red" />
<circle cx="201.5439823682796" cy="200.0" r="4" fill="red" />
<circle cx="493.19589125235944" cy="315.8200382028457" r="4" fill="red" />
<circle cx="465.81553963523726" cy="296.470656930945" r="4" fill="red" />
</svg>